<?xml version="1.0" encoding="UTF-8"?>
<!-- Created with Inkscape (http://www.inkscape.org/) -->
<svg id="svg2" width="110" height="110" version="1.1" viewBox="0 0 110 110" xml:space="preserve" xmlns="http://www.w3.org/2000/svg" xmlns:cc="http://creativecommons.org/ns#" xmlns:dc="http://purl.org/dc/elements/1.1/" xmlns:rdf="http://www.w3.org/1999/02/22-rdf-syntax-ns#"><metadata id="metadata8"><rdf:RDF><cc:Work rdf:about=""><dc:format>image/svg+xml</dc:format><dc:type rdf:resource="http://purl.org/dc/dcmitype/StillImage"/><dc:title/></cc:Work></rdf:RDF></metadata><g id="g10" transform="matrix(1.3333 0 0 -1.3333 0 110)"><g id="g4679" transform="translate(-7.263 -9.0886)" fill-rule="evenodd"><path id="path16" d="m79.346 17.263-3.545 5.513c-0.217 0.326-0.402 0.601-0.553 0.829s-0.303 0.412-0.455 0.553c-0.151 0.141-0.31 0.245-0.479 0.308-0.168 0.066-0.366 0.099-0.593 0.099-0.305 0-0.552-0.052-0.741-0.155-0.19-0.104-0.333-0.198-0.43-0.285-0.152-0.129-0.267-0.259-0.35-0.389-0.082-0.131-0.139-0.287-0.178-0.472-0.038-0.185-0.061-0.407-0.067-0.668-5e-3 -0.259-6e-3 -0.579-6e-3 -0.959v-6.796c0-0.5 0.015-0.889 0.047-1.171 0.034-0.282 0.139-0.52 0.321-0.715 0.131-0.142 0.284-0.248 0.466-0.317 0.184-0.071 0.366-0.106 0.547-0.106 0.236 0 0.437 0.046 0.601 0.137 0.167 0.094 0.304 0.194 0.413 0.303 0.083 0.086 0.151 0.186 0.2 0.301 0.046 0.112 0.081 0.241 0.103 0.389 0.022 0.146 0.035 0.317 0.041 0.511 5e-3 0.195 9e-3 0.418 9e-3 0.668v4.879l3.463-5.367c0.215-0.335 0.407-0.621 0.569-0.853 0.162-0.235 0.319-0.422 0.471-0.561 0.152-0.142 0.313-0.245 0.479-0.311 0.169-0.063 0.373-0.096 0.61-0.096 0.316 0 0.567 0.052 0.757 0.154 0.189 0.105 0.338 0.197 0.446 0.286 0.153 0.128 0.268 0.262 0.351 0.398 0.081 0.134 0.139 0.297 0.178 0.486 0.038 0.19 0.06 0.417 0.066 0.676 5e-3 0.26 7e-3 0.585 7e-3 0.975v6.732c0 0.499-0.013 0.895-0.04 1.187s-0.13 0.532-0.312 0.716c-0.141 0.13-0.3 0.234-0.482 0.31-0.185 0.074-0.366 0.113-0.548 0.113-0.235 0-0.436-0.049-0.6-0.147-0.168-0.096-0.3-0.194-0.398-0.293-0.181-0.184-0.286-0.416-0.319-0.699-0.032-0.281-0.049-0.677-0.049-1.187zm-12.497-2.615 0.073-0.214 0.01-0.028 4e-3 -0.014 5e-3 -0.015 4e-3 -0.013 5e-3 -0.014 3e-3 -0.014 0.01-0.028 5e-3 -0.013 5e-3 -0.014 4e-3 -0.013 4e-3 -0.015 5e-3 -0.012 1e-3 -2e-3c0.072-0.225 0.145-0.426 0.22-0.61 0.092-0.233 0.2-0.43 0.326-0.593 0.125-0.163 0.271-0.286 0.44-0.375 0.166-0.085 0.381-0.129 0.642-0.129 0.227 0 0.43 0.044 0.608 0.129 0.18 0.089 0.331 0.195 0.456 0.326 0.124 0.13 0.222 0.272 0.293 0.431 0.069 0.157 0.104 0.312 0.104 0.463 0 0.11-6e-3 0.212-0.023 0.309-0.017 0.098-0.044 0.204-0.081 0.317-0.038 0.114-0.084 0.245-0.138 0.391-0.054 0.145-0.121 0.322-0.196 0.529l-2.456 6.325c-0.14 0.367-0.262 0.683-0.363 0.943-0.105 0.26-0.205 0.484-0.304 0.675-0.097 0.189-0.194 0.346-0.291 0.471-0.098 0.124-0.211 0.231-0.343 0.317-0.411 0.271-0.849 0.407-1.316 0.407-0.282 0-0.532-0.04-0.748-0.122-0.217-0.081-0.411-0.182-0.586-0.301-0.119-0.087-0.227-0.189-0.325-0.309-0.096-0.12-0.193-0.274-0.284-0.463-0.092-0.191-0.192-0.415-0.3-0.675-0.109-0.26-0.234-0.576-0.374-0.943l-2.44-6.391c-0.087-0.217-0.153-0.397-0.203-0.536-0.05-0.141-0.09-0.27-0.123-0.384-0.032-0.113-0.053-0.216-0.065-0.308-0.01-0.092-0.016-0.192-0.016-0.3 0-0.153 0.035-0.307 0.106-0.463 0.071-0.158 0.171-0.299 0.301-0.424 0.131-0.123 0.28-0.226 0.446-0.301 0.169-0.075 0.351-0.113 0.546-0.113 0.261 0 0.474 0.044 0.642 0.129 0.169 0.089 0.31 0.212 0.432 0.375 0.118 0.163 0.221 0.36 0.309 0.593l0.215 0.61 2e-3 4e-3 5e-3 0.013 3e-3 0.013 5e-3 0.014 4e-3 0.013 5e-3 0.013 4e-3 0.015 4e-3 0.012 5e-3 0.013 5e-3 0.015 5e-3 0.013 4e-3 0.013 4e-3 0.014 5e-3 0.014 0.197 0.585 0.911 2.721 1.267 3.799 1.152-3.418 0.295-0.874zm-16.837 5.38v2.066c0 0.531-0.014 0.949-0.04 1.25-0.028 0.305-0.146 0.559-0.35 0.766-0.303 0.303-0.672 0.455-1.106 0.455-0.25 0-0.467-0.052-0.652-0.155-0.182-0.104-0.329-0.208-0.436-0.319-0.197-0.194-0.312-0.439-0.343-0.738-0.031-0.297-0.049-0.718-0.049-1.259v-7.091c0-0.531 0.018-0.951 0.049-1.26s0.146-0.562 0.343-0.756c0.151-0.151 0.323-0.267 0.52-0.342 0.194-0.075 0.389-0.113 0.584-0.113 0.25 0 0.466 0.052 0.651 0.154 0.183 0.105 0.33 0.21 0.439 0.317 0.196 0.196 0.308 0.442 0.341 0.74s0.049 0.718 0.049 1.26v2.619h4.276v-2.619c0-0.531 0.018-0.951 0.049-1.26 0.032-0.309 0.147-0.562 0.343-0.756 0.303-0.303 0.672-0.455 1.104-0.455 0.249 0 0.464 0.049 0.643 0.146 0.179 0.098 0.327 0.205 0.447 0.325 0.195 0.196 0.309 0.442 0.341 0.74 0.033 0.298 0.048 0.718 0.048 1.26v7.073c0 0.543-0.015 0.967-0.048 1.268-0.032 0.305-0.151 0.559-0.358 0.766-0.15 0.151-0.323 0.266-0.511 0.342-0.191 0.074-0.383 0.113-0.578 0.113-0.249 0-0.463-0.049-0.642-0.147-0.178-0.096-0.328-0.206-0.446-0.327-0.196-0.194-0.311-0.442-0.343-0.747-0.031-0.301-0.049-0.725-0.049-1.268v-2.048zm-4.926-3.675c0 0.477-0.106 0.956-0.321 1.439-0.21 0.482-0.512 0.864-0.905 1.147-0.208 0.141-0.45 0.275-0.726 0.406-0.279 0.129-0.565 0.25-0.86 0.357-0.292 0.109-0.576 0.201-0.848 0.277-0.273 0.076-0.507 0.136-0.704 0.179-0.357 0.076-0.689 0.155-0.987 0.237-0.301 0.079-0.557 0.173-0.777 0.274-0.218 0.104-0.388 0.221-0.515 0.352-0.125 0.128-0.188 0.292-0.188 0.486 0 0.315 0.165 0.559 0.497 0.732 0.328 0.174 0.733 0.261 1.211 0.261 0.131 0 0.279-8e-3 0.448-0.024 0.167-0.016 0.337-0.068 0.511-0.154 0.119-0.056 0.222-0.112 0.31-0.173 0.087-0.059 0.173-0.134 0.259-0.228 0.087-0.09 0.18-0.205 0.277-0.34 0.097-0.137 0.223-0.306 0.374-0.512 0.033-0.045 0.08-0.102 0.146-0.171 0.065-0.069 0.147-0.142 0.245-0.211 0.096-0.07 0.213-0.131 0.349-0.18 0.134-0.047 0.284-0.073 0.446-0.073 0.347 0 0.629 0.119 0.846 0.359 0.217 0.237 0.325 0.558 0.325 0.959 0 0.129-0.052 0.351-0.162 0.666-0.109 0.314-0.318 0.627-0.625 0.944-0.309 0.313-0.749 0.594-1.319 0.836-0.568 0.245-1.314 0.367-2.235 0.367-0.673 0-1.292-0.071-1.865-0.213-0.571-0.14-1.064-0.349-1.475-0.624-0.413-0.278-0.733-0.622-0.963-1.033-0.231-0.412-0.348-0.89-0.348-1.431 0-0.65 0.144-1.183 0.431-1.601 0.287-0.419 0.634-0.757 1.041-1.017s0.837-0.461 1.292-0.602c0.456-0.141 0.852-0.25 1.188-0.326 0.38-0.096 0.731-0.189 1.055-0.275 0.327-0.088 0.606-0.192 0.839-0.317 0.234-0.125 0.419-0.277 0.554-0.456s0.202-0.398 0.202-0.659c0-0.217-0.052-0.406-0.155-0.568-0.102-0.163-0.242-0.301-0.421-0.415-0.18-0.113-0.389-0.197-0.628-0.253-0.238-0.053-0.487-0.08-0.747-0.08-0.325 0-0.601 0.037-0.83 0.113-0.227 0.076-0.419 0.177-0.576 0.301-0.158 0.123-0.287 0.266-0.392 0.423-0.103 0.157-0.196 0.316-0.284 0.479-0.064 0.119-0.132 0.252-0.203 0.399-0.069 0.145-0.155 0.283-0.26 0.407-0.103 0.123-0.235 0.227-0.398 0.309-0.163 0.081-0.363 0.121-0.603 0.121-0.227 0-0.422-0.046-0.585-0.138-0.162-0.093-0.291-0.203-0.39-0.334-0.098-0.129-0.167-0.27-0.211-0.422s-0.065-0.282-0.065-0.391c0-0.25 0.069-0.568 0.211-0.959 0.14-0.389 0.394-0.771 0.756-1.137 0.363-0.369 0.856-0.685 1.48-0.945s1.422-0.389 2.399-0.389c0.824 0 1.541 0.099 2.155 0.301 0.611 0.2 1.121 0.477 1.528 0.829s0.707 0.759 0.903 1.219c0.195 0.46 0.293 0.951 0.293 1.472zm-16.971 5.789h3.935c0.391 0 0.701 0.013 0.934 0.033 0.232 0.022 0.432 0.104 0.579 0.26 0.231 0.244 0.34 0.525 0.34 0.829 0 0.185-0.039 0.346-0.113 0.48s-0.158 0.248-0.245 0.334c-0.15 0.149-0.34 0.238-0.561 0.259-0.222 0.021-0.536 0.033-0.934 0.033h-4.408c-0.311 0-0.581-4e-3 -0.796-8e-3s-0.402-0.024-0.553-0.05c-0.15-0.025-0.284-0.07-0.39-0.13-0.109-0.058-0.222-0.141-0.326-0.252-0.109-0.115-0.193-0.231-0.252-0.333-0.059-0.103-0.104-0.227-0.13-0.373s-0.044-0.327-0.048-0.537c-5e-3 -0.21-9e-3 -0.486-9e-3 -0.822v-6.634c0-0.313 4e-3 -0.58 9e-3 -0.797s0.022-0.404 0.048-0.561c0.026-0.156 0.071-0.289 0.13-0.399 0.059-0.107 0.146-0.211 0.252-0.307 0.12-0.108 0.232-0.194 0.334-0.253s0.229-0.104 0.374-0.13c0.146-0.026 0.324-0.047 0.537-0.05 0.208-4e-3 0.484-7e-3 0.82-7e-3h4.538c0.413 0 0.737 0.014 0.976 0.039 0.238 0.027 0.435 0.118 0.585 0.27 0.236 0.237 0.357 0.521 0.357 0.845 0 0.196-0.04 0.365-0.122 0.504-0.081 0.141-0.166 0.255-0.252 0.342-0.15 0.15-0.344 0.241-0.577 0.268-0.232 0.027-0.556 0.041-0.967 0.041h-4.065v2.716h3.545c0.379 0 0.681 0.01 0.903 0.032 0.221 0.02 0.409 0.11 0.56 0.26 0.226 0.227 0.34 0.493 0.34 0.796 0 0.184-0.037 0.346-0.113 0.48-0.075 0.135-0.152 0.242-0.227 0.317-0.153 0.153-0.337 0.24-0.553 0.261-0.215 0.02-0.523 0.033-0.91 0.033h-3.545zm-10.375-7.009v6.961c0 0.531-0.017 0.949-0.049 1.25-0.032 0.304-0.142 0.564-0.341 0.766-0.299 0.306-0.672 0.455-1.106 0.455-0.2476 0-0.4668-0.052-0.6496-0.155-0.184-0.103-0.3304-0.21-0.4386-0.319-0.1946-0.194-0.3102-0.439-0.3418-0.738-0.0325-0.296-0.05-0.719-0.05-1.259v-6.863c0-0.313 0.0046-0.581 0.0082-0.797 5e-3 -0.217 0.0226-0.404 0.05-0.561 0.0253-0.156 0.0707-0.289 0.1296-0.399 0.0586-0.107 0.1446-0.211 0.252-0.307 0.1191-0.108 0.2301-0.194 0.3324-0.253 0.1028-0.059 0.2293-0.104 0.3742-0.13 0.1477-0.026 0.3266-0.046 0.5376-0.05 0.209-4e-3 0.485-7e-3 0.822-7e-3h4.389c0.434 0 0.775 0.014 1.024 0.039 0.249 0.027 0.456 0.124 0.618 0.286 0.249 0.249 0.374 0.547 0.374 0.894 0 0.207-0.045 0.382-0.131 0.528s-0.172 0.265-0.259 0.351c-0.151 0.149-0.352 0.243-0.602 0.268-0.248 0.027-0.592 0.04-1.024 0.04h-3.919" fill="#2e2d2d"/><path id="path68" d="m41.501 62.844c0.541 0.156 1.114 0.239 1.705 0.239 1.068 0 2.119-0.282 3.046-0.81 0.821-0.467 1.359-1.246 1.924-1.539 0.611-0.318 1.392-0.225 1.899 0.276 0.816 0.802 2.129 0.79 2.931-0.026 0.802-0.814 0.79-2.128-0.025-2.93-0.943-0.927-2.139-1.477-3.379-1.619-4.105-0.471-4.392 2.68-6.396 2.68-1.21 0-2.19-0.979-2.19-2.191 0-0.576 0.207-1.125 0.523-1.623l-0.376 0.048c-0.704 0.997-1.116 2.214-1.116 3.528 0 1.513 0.547 2.897 1.454 3.967" fill="#3aad9a"/><path id="path70" d="m58.585 53.387c-1.058-1.709-2.541-3.109-4.296-4.09-4.494-2.499-9.642-1.832-13.671 1.283-1.999 1.545-3.57 3.735-3.57 6.344 0 3.124 2.337 5.711 5.355 6.106-1.124-1.122-1.818-2.673-1.818-4.386 0-1.006 0.239-1.955 0.664-2.796 0.418-0.973 1.397-1.938 2.29-2.489 2.753-1.841 5.878-2.238 8.822-0.597 1.196 0.667 2.209 1.626 2.925 2.83 0.962 1.532 3.149 2.482 4.923 2.482 0.672 0 1.327-0.109 1.95-0.316 0.813-1.041 1.298-2.349 1.298-3.772 0-1.781-0.758-3.384-1.97-4.505l-0.526-0.224c0.412 0.497 0.794 1.018 1.146 1.562 0.489 0.838 0.358 1.941-0.347 2.648-0.889 0.888-2.341 0.839-3.175-0.08" fill="#4155ae"/><path id="path72" d="m61.299 57.978c1.228-0.22 2.369-0.809 3.264-1.707 1.997-2.002 2.362-5.084 0.95-7.473-1.734-2.845-4.518-5.363-7.431-6.954-2.992-1.633-6.341-2.494-9.751-2.494-3.227 0-6.411 0.771-9.281 2.243-2.856 1.463-5.317 3.569-7.178 6.14-0.06 0.073-0.104 0.137-0.166 0.237-0.899 1.531-3.672 1.077-4.017-0.891-0.051-0.638 0.016-0.799 0.177-1.431l-0.3-0.392c-0.673 0.985-1.066 2.176-1.066 3.459 0 1.427 0.487 2.738 1.303 3.781 0.651 0.227 1.341 0.349 2.047 0.349 2.087 0 4.128-0.939 5.215-2.772 1.514-2.093 3.488-3.776 5.787-4.954 2.315-1.187 4.879-1.801 7.479-1.801 2.745 0 5.444 0.688 7.853 2.006 2.117 1.157 3.945 2.755 5.358 4.677 0.227 0.286 0.594 0.801 0.722 1.153 1.084 2.25 0.704 4.956-0.965 6.824" fill="#533c9f"/><path id="path74" d="m27.865 45.78c0.077-0.171 0.176-0.336 0.296-0.492l4e-3 -6e-3c0.096-0.143 0.198-0.282 0.305-0.416 2.253-3.017 5.167-5.481 8.52-7.206 3.508-1.804 7.397-2.743 11.341-2.743 4.25 0 8.425 1.09 12.132 3.169 3.707 2.08 6.816 5.072 9.029 8.7 0.568 0.928 1.793 1.225 2.723 0.659 0.932-0.568 1.229-1.794 0.66-2.725-2.569-4.206-6.175-7.681-10.473-10.093-4.299-2.411-9.142-3.677-14.071-3.677-4.576 0-9.086 1.093-13.156 3.186-4.065 2.091-7.574 5.123-10.212 8.81-0.405 0.53-0.725 1.125-0.94 1.758-0.217 0.638-0.329 1.309-0.329 1.984 0 1.637 0.646 3.196 1.802 4.353 0.851 0.852 1.918 1.426 3.075 1.67-0.905-1.078-1.45-2.467-1.45-3.985 0-1.066 0.269-2.07 0.744-2.946" fill="#8f188f"/><path id="path76" d="m50.783 74.543c-0.622 0.622-1.483 1.007-2.432 1.007s-1.81-0.385-2.431-1.007c-0.621-0.62-1.006-1.481-1.006-2.431 0-0.949 0.385-1.808 1.006-2.43l-5e-3 -3e-3c0.621-0.617 1.485-1.002 2.436-1.002 0.953 0 1.814 0.385 2.435 1.002l-3e-3 3e-3c0.621 0.622 1.005 1.481 1.005 2.43 0 0.95-0.384 1.811-1.005 2.431zm-2.432 4.919c2.028 0 3.868-0.824 5.197-2.153 1.329-1.33 2.152-3.168 2.152-5.197 0-2.028-0.823-3.865-2.152-5.195h-8e-3c-1.331-1.329-3.167-2.152-5.189-2.152-2.023 0-3.859 0.823-5.189 2.152h-7e-3c-1.33 1.33-2.153 3.167-2.153 5.195 0 2.029 0.823 3.867 2.153 5.197 1.329 1.329 3.168 2.153 5.196 2.153" fill="#64af31"/><path id="path78" d="m48.352 81.403c1.869 0 3.392 1.524 3.392 3.393s-1.523 3.393-3.392 3.393-3.393-1.524-3.393-3.393 1.524-3.393 3.393-3.393" fill="#64af31"/></g></g></svg>
